<svg data-v-423bf9ae="" xmlns="http://www.w3.org/2000/svg" viewBox="0 0 428.97721694028803 60" class="font"><!----><!----><!----><g data-v-423bf9ae="" id="cb385429-37bb-4646-9deb-f3d506984ca7" fill="white" transform="matrix(5.681817531585693,0,0,5.681817531585693,-6.363639831542969,-31.079538345336914)"><path d="M3.40 9.23C2.65 9.23 1.97 9.43 1.52 10.31L1.12 11.08L1.24 11.14L1.64 10.37C1.85 9.97 2.08 9.72 2.26 9.72C2.38 9.72 2.46 9.86 2.46 10.19C2.46 10.32 2.45 10.49 2.41 10.71L1.59 15.64C1.59 15.67 1.58 15.70 1.58 15.71C1.58 15.83 1.99 15.87 2.45 15.87L3.34 15.86C3.34 15.86 3.47 15.83 3.48 15.78L4.21 12.91C4.66 11.11 5.80 9.54 6.67 9.54C7.23 9.54 7.59 10.01 7.67 10.90C7.74 10.93 7.81 10.94 7.89 10.94C8.39 10.94 9.04 10.47 9.04 9.82C9.04 9.13 8.49 8.66 7.66 8.66C6.60 8.66 5.25 9.69 4.63 10.91C4.64 10.79 4.65 10.72 4.65 10.61C4.65 9.84 4.37 9.23 3.40 9.23ZM16.60 9.30C16.44 9.30 15.91 9.38 15.60 10.10C15.26 9.48 14.57 9.15 13.49 9.15C10.88 9.15 9.13 10.83 9.13 13.33C9.13 14.93 10.34 16.00 12.16 16.00C13.90 16.00 14.71 14.96 15.21 13.92C15.21 15.25 15.98 16.00 16.81 16.00C17.39 16.00 18.01 15.63 18.40 14.85L19.00 13.67L18.89 13.60L18.42 14.51C18.20 14.92 17.80 15.16 17.45 15.16C17.11 15.16 16.82 14.93 16.82 14.43C16.82 14.33 16.84 14.23 16.86 14.11L17.17 12.91C17.34 12.33 17.88 10.04 17.95 9.30ZM15.39 10.31C15.42 10.35 15.42 10.42 15.42 10.49C15.42 10.60 15.41 10.71 15.40 10.77L15.28 12.56C15.27 12.65 15.24 13.00 15.18 13.15C14.77 14.19 14.05 15.53 12.76 15.53C11.76 15.53 11.23 14.98 11.23 13.97C11.23 11.30 12.36 9.52 14.05 9.52C14.52 9.52 15.10 9.75 15.39 10.31ZM20.93 9.65L20.48 12.56C20.41 13.03 20.29 13.67 20.29 14.27C20.29 15.39 21.14 15.96 22.04 15.96C22.76 15.96 23.52 15.59 23.90 14.85L24.50 13.67L24.38 13.60L23.91 14.51C23.73 14.88 23.19 15.16 22.73 15.16C22.34 15.16 22.00 14.94 22.00 14.40C22.00 14.31 22.02 14.22 22.04 14.11L23.02 9.65L25.12 9.65L25.12 9.30L23.11 9.30L23.68 6.69C23.68 6.69 23.69 6.66 23.69 6.65C23.69 6.63 23.62 6.62 23.54 6.62L22.74 6.62C22.11 6.62 21.30 7.29 21.16 8.13L20.99 9.30L19.60 9.30L19.60 9.65ZM27.56 13.64C30.48 13.62 33.04 12.69 33.04 10.85C33.04 9.74 32.01 9.15 30.07 9.15C27.43 9.15 25.44 10.58 25.44 13.28C25.44 14.94 26.69 16.00 28.74 16.00C30.22 16.00 31.50 15.45 32.33 14.52L32.08 14.29C31.53 14.96 30.37 15.53 29.36 15.53C28.10 15.53 27.55 15.06 27.55 13.86C27.55 13.79 27.55 13.72 27.56 13.64ZM27.58 13.30C27.75 11.33 28.80 9.50 30.00 9.50C30.75 9.50 31.14 9.90 31.14 10.66C31.14 12.54 29.77 13.30 27.58 13.30ZM35.38 9.65L34.92 12.56C34.86 13.03 34.73 13.67 34.73 14.27C34.73 15.39 35.58 15.96 36.48 15.96C37.20 15.96 37.96 15.59 38.34 14.85L38.94 13.67L38.83 13.60L38.36 14.51C38.17 14.88 37.63 15.16 37.17 15.16C36.78 15.16 36.45 14.94 36.45 14.40C36.45 14.31 36.46 14.22 36.48 14.11L37.47 9.65L39.56 9.65L39.56 9.30L37.55 9.30L38.12 6.69C38.12 6.69 38.13 6.66 38.13 6.65C38.13 6.63 38.06 6.62 37.98 6.62L37.19 6.62C36.56 6.62 35.75 7.29 35.61 8.13L35.43 9.30L34.04 9.30L34.04 9.65ZM42 13.64C44.93 13.62 47.48 12.69 47.48 10.85C47.48 9.74 46.46 9.15 44.52 9.15C41.88 9.15 39.88 10.58 39.88 13.28C39.88 14.94 41.13 16.00 43.18 16.00C44.67 16.00 45.94 15.45 46.78 14.52L46.53 14.29C45.98 14.96 44.81 15.53 43.80 15.53C42.55 15.53 41.99 15.06 41.99 13.86C41.99 13.79 41.99 13.72 42 13.64ZM42.02 13.30C42.19 11.33 43.24 9.50 44.45 9.50C45.20 9.50 45.59 9.90 45.59 10.66C45.59 12.54 44.21 13.30 42.02 13.30ZM55.78 9.30C55.62 9.30 55.10 9.38 54.78 10.10C54.44 9.48 53.76 9.15 52.68 9.15C50.06 9.15 48.31 10.83 48.31 13.33C48.31 14.93 49.53 16.00 51.34 16.00C53.09 16.00 53.89 14.96 54.39 13.92C54.39 15.25 55.17 16.00 55.99 16.00C56.57 16.00 57.19 15.63 57.59 14.85L58.19 13.67L58.07 13.60L57.60 14.51C57.39 14.92 56.98 15.16 56.64 15.16C56.29 15.16 56.01 14.93 56.01 14.43C56.01 14.33 56.02 14.23 56.04 14.11L56.36 12.91C56.52 12.33 57.07 10.04 57.13 9.30ZM54.57 10.31C54.60 10.35 54.61 10.42 54.61 10.49C54.61 10.60 54.59 10.71 54.58 10.77L54.46 12.56C54.46 12.65 54.42 13.00 54.36 13.15C53.96 14.19 53.23 15.53 51.95 15.53C50.95 15.53 50.42 14.98 50.42 13.97C50.42 11.30 51.54 9.52 53.23 9.52C53.70 9.52 54.28 9.75 54.57 10.31ZM63.62 9.50C64.74 9.50 65.30 9.84 65.30 11.02C65.30 11.31 65.26 11.66 65.19 12.08C65.24 12.09 65.31 12.10 65.39 12.10C65.90 12.10 66.81 11.81 66.81 11.06C66.81 9.82 65.30 9.16 63.68 9.16C61.05 9.16 59.06 10.58 59.06 13.28C59.06 14.94 60.31 16.00 62.36 16.00C63.84 16.00 65.12 15.45 65.95 14.52L65.70 14.29C65.15 14.96 63.98 15.53 62.98 15.53C61.72 15.53 61.17 15.06 61.17 13.86C61.17 11.68 62.33 9.51 63.62 9.50ZM68.97 5.47L68.95 5.61C69.10 5.61 69.19 5.61 69.19 5.90C69.19 6.09 69.15 6.41 69.06 6.95L67.56 15.56C67.56 15.57 67.55 15.65 67.55 15.65C67.55 15.79 68.02 15.86 68.48 15.86L69.13 15.86C69.17 15.86 69.26 15.83 69.27 15.78L70.21 11.79L71.96 10.34C72.27 10.10 72.65 9.86 72.94 9.86C73.18 9.86 73.35 10.02 73.35 10.49C73.35 10.79 73.27 11.25 73.08 11.87L72.86 12.60C72.72 13.07 72.65 13.51 72.65 13.91C72.65 15.17 73.29 16.03 74.25 16.03C74.81 16.03 75.53 15.72 75.98 14.85L76.62 13.60L76.50 13.53L76.00 14.51C75.71 15.07 75.22 15.37 74.83 15.37C74.53 15.37 74.31 15.18 74.31 14.79C74.31 14.61 74.35 14.38 74.47 14.11L74.98 12.91C75.27 12.20 75.40 11.57 75.40 11.05C75.40 9.88 74.74 9.20 73.80 9.20C73.20 9.20 72.47 9.48 71.74 10.08L70.34 11.24L71.16 7.78C71.24 7.29 71.39 6.81 71.39 6.41C71.39 5.85 71.11 5.47 70.04 5.47Z"></path></g><!----><!----></svg>