<svg xmlns="http://www.w3.org/2000/svg" version="1.1" xmlns:xlink="http://www.w3.org/1999/xlink" xmlns:svgjs="http://svgjs.dev/svgjs" width="1500" height="1500" viewBox="0 0 1500 1500"><rect width="1500" height="1500" fill="#000000"></rect><g transform="matrix(0.6666666666666666,0,0,0.6666666666666666,249.39436519522388,638.5861979086346)"><svg viewBox="0 0 396 88" data-background-color="#3a3d53" preserveAspectRatio="xMidYMid meet" height="333" width="1500" xmlns="http://www.w3.org/2000/svg" xmlns:xlink="http://www.w3.org/1999/xlink"><g id="tight-bounds" transform="matrix(1,0,0,1,0.24008861730862918,0.16402965783851187)"><svg viewBox="0 0 395.52 87.6716230382714" height="87.6716230382714" width="395.52"><g><svg viewBox="0 0 395.52 87.6716230382714" height="87.6716230382714" width="395.52"><g><svg viewBox="0 0 395.52 87.6716230382714" height="87.6716230382714" width="395.52"><g id="textblocktransform"><svg viewBox="0 0 395.52 87.6716230382714" height="87.6716230382714" width="395.52" id="textblock"><g><svg viewBox="0 0 395.52 87.6716230382714" height="87.6716230382714" width="395.52"><path d="M394.594 18.804C392.735 9.704 387.435 7.174 387.435 7.174 371.165-2.2 350.86-0.179 332.619 1.168 300.414 1.222 268.339 3.224 236.208 4.298 168.767 4.462 100.749 1.768 33.643 8.411 27.339 10.45-6.54 8.812 1.121 19.969 3.129 24.61 10.456 29.761 10.232 34.02 11.236 34.766 12.631 33.055 13.226 34.129 15.309 37.023 18.711 35.658 21.501 37.368 17.614 41.937 20.403 45.741 23.062 49.727 18.377 50.764 12.371 50.273 9.675 53.713 9.396 56.206 7.89 55.733 6.235 55.624 5.026 55.551 2.59 55.824 2.999 56.606 4.394 59.282-1.594 60.829 2.162 63.45-0.422 66.289 3.948 68.746 3.353 71.822 3.278 72.441 3.687 72.969 4.338 73.114 7.22 73.897 3.018 75.426 3.464 77.082 33.029 88.403 65.104 80.577 95.394 85.782 103.259 82.142 97.346 87.074 100.489 86.31 102.943 85.418 104.728 89.113 107.499 87.02 107.927 86.419 107.276 84.999 108.8 85.272 109.6 85.418 110.307 85.382 110.418 84.544 110.586 83.288 109.117 84.071 108.726 83.416 112.947 80.103 111.906 87.984 115.866 87.657 115.68 86.692 114.528 85.309 116.889 85.491 119.232 84.108 119.306 82.961 121.389 86.073 121.463 86.747 121.835 87.22 122.43 87.547 128.938 84.162 135.409 88.749 142.233 87.22 146.417 85.545 150.433 88.13 154.672 87.493 156.16 86.983 157.666 86.073 159.098 87.602 176.632 87.93 195.319 86.565 211.943 87.657 256.364 85.618 303.836 88.494 350.674 85.8 361.719 84.763 373.192 83.288 383.958 82.105 383.958 82.105 392.679 78.866 392.679 64.305S394.538 51.565 394.817 39.971C395.096 28.377 396.398 27.904 394.538 18.804Z" opacity="1" fill="#ffffff" data-fill-palette-color="tertiary"></path><g transform="matrix(1,0,0,1,55.76832,26.230666666666668)"><svg width="283.98335999999995" viewBox="1.7 -39.25 327.03000000000003 40.55" height="35.21028970493808" data-palette-color="#3a3d53"><path d="M24.5-34.5Q25.55-34.35 26.15-33.85 26.75-33.35 26.75-32.2L26.75-32.2Q26.75-31.05 26.1-30.45 25.45-29.85 24.25-29.9L24.25-29.9Q20.3-30.25 16.85-30.3L16.85-30.3Q16.45-25.2 16.2-16.85L16.2-16.85Q15.9-8.75 15.9-2L15.9-2Q15.9-0.65 15.35-0.08 14.8 0.5 13.35 0.5L13.35 0.5Q11.9 0.5 11.28-0.13 10.65-0.75 10.65-2.25L10.65-2.25Q10.65-5.9 11.15-16.8L11.15-16.8Q11.5-25.25 11.85-30.25L11.85-30.25Q9.55-30.2 5.7-29.85L5.7-29.85Q5.3-29.85 4.3-29.75L4.3-29.75Q3.1-29.65 2.4-30.28 1.7-30.9 1.7-32.1L1.7-32.1Q1.7-34 3.7-34.25L3.7-34.25Q8.85-34.85 14.75-34.85L14.75-34.85Q21.55-34.85 24.5-34.5L24.5-34.5ZM44.35 0.3Q40.1 0.3 37.07-1.45 34.05-3.2 32.52-6.15 31-9.1 31-12.65L31-12.65Q31-16.3 32.65-19.28 34.3-22.25 37.3-23.98 40.3-25.7 44.15-25.7L44.15-25.7Q47.55-25.7 50.27-24.33 53-22.95 54.55-20.45 56.1-17.95 56.1-14.75L56.1-14.75Q56.1-13.05 55.6-12.33 55.1-11.6 53.55-11.55L53.55-11.55 35.5-11.3Q35.5-9.65 36.55-7.9 37.6-6.15 39.57-4.98 41.55-3.8 44.2-3.8L44.2-3.8Q46.1-3.8 47.42-4.33 48.75-4.85 49.55-5.58 50.35-6.3 51.45-7.5L51.45-7.5Q52-8.05 52.85-8.05L52.85-8.05Q53.65-8.05 54.37-7.43 55.1-6.8 55.1-6L55.1-6Q55.1-5.35 54.65-4.75L54.65-4.75Q53.25-2.75 50.9-1.23 48.55 0.3 44.35 0.3L44.35 0.3ZM35.5-14.8L51.4-15.1Q51.7-15.1 51.82-15.28 51.95-15.45 51.95-15.8L51.95-15.8Q51.95-18.45 49.72-20.13 47.5-21.8 44.15-21.8L44.15-21.8Q41.6-21.8 39.62-20.6 37.65-19.4 36.57-17.73 35.5-16.05 35.5-14.8L35.5-14.8ZM85.7-4Q86.45-3.9 86.87-3.5 87.3-3.1 87.3-2.15L87.3-2.15Q87.3-1.25 86.85-0.65 86.4-0.05 85.6-0.05L85.6-0.05Q83.55-0.05 82.52-0.65 81.5-1.25 80.65-2.9L80.65-2.9Q78.55 0.5 72.85 0.5L72.85 0.5Q67.05 0.5 64.3-3.03 61.55-6.55 61.55-11.8L61.55-11.8Q61.55-15.3 62.95-18.25 64.35-21.2 67.05-22.95 69.75-24.7 73.35-24.7L73.35-24.7Q75.65-24.7 77.42-23.8 79.2-22.9 80.1-21.35L80.1-21.35 80.25-22.6Q80.45-24.4 82.4-24.4L82.4-24.4Q83.7-24.4 84.25-23.83 84.8-23.25 84.7-22.4L84.7-22.4Q84.2-18.65 84.1-16.75L84.1-16.75Q83.95-14.95 83.95-12.05L83.95-12.05 83.95-8.75Q83.95-6.15 84.22-5.15 84.5-4.15 85.7-4L85.7-4ZM79.05-8.75Q79.1-11 79.1-14.9L79.1-14.9Q79.1-16.95 78.22-18.25 77.35-19.55 76.07-20.15 74.8-20.75 73.5-20.75L73.5-20.75Q71.25-20.75 69.67-19.43 68.1-18.1 67.32-16.05 66.55-14 66.55-11.8L66.55-11.8Q66.55-8.45 68.12-5.98 69.7-3.5 73.05-3.5L73.05-3.5Q75.7-3.5 77.35-4.85 79-6.2 79.05-8.75L79.05-8.75ZM105.04 0Q101.14 0 98.29-1.6 95.44-3.2 93.92-5.95 92.39-8.7 92.39-12.15L92.39-12.15Q92.39-15.75 93.97-18.88 95.54-22 98.47-23.85 101.39-25.7 105.29-25.7L105.29-25.7Q109.49-25.7 112.39-23.68 115.29-21.65 116.44-18.7L116.44-18.7Q116.74-18.1 116.74-17.55L116.74-17.55Q116.74-16.4 115.14-15.95L115.14-15.95Q114.54-15.85 114.39-15.85L114.39-15.85Q113.64-15.85 113.14-16.28 112.64-16.7 112.19-17.55L112.19-17.55Q111.39-19.3 109.69-20.53 107.99-21.75 105.59-21.75L105.59-21.75Q103.14-21.75 101.27-20.45 99.39-19.15 98.37-16.95 97.34-14.75 97.34-12.2L97.34-12.2Q97.34-8.55 99.42-6.25 101.49-3.95 105.34-3.95L105.34-3.95Q107.79-3.95 109.49-4.9 111.19-5.85 112.02-7.3 112.84-8.75 112.94-10.25L112.94-10.25Q112.94-10.9 113.47-11.33 113.99-11.75 114.94-11.75L114.94-11.75Q116.14-11.75 116.77-11.28 117.39-10.8 117.39-9.6L117.39-9.6Q117.34-7.3 115.97-5.1 114.59-2.9 111.84-1.45 109.09 0 105.04 0L105.04 0ZM144.79-19Q145.44-16.25 145.72-12.08 145.99-7.9 145.99-1.95L145.99-1.95Q145.99-1.15 145.27-0.6 144.54-0.05 143.49-0.05L143.49-0.05Q142.44-0.05 141.74-0.6 141.04-1.15 141.04-2.2L141.04-2.2Q141.04-14.8 140.04-18.35L140.04-18.35Q139.54-20.15 138.54-20.93 137.54-21.7 135.99-21.7L135.99-21.7Q132.54-21.7 130.72-18.93 128.89-16.15 128.89-12.35L128.89-12.35 128.89-1.9Q128.89-1.1 128.19-0.6 127.49-0.1 126.44-0.1L126.44-0.1Q125.34-0.1 124.64-0.63 123.94-1.15 123.94-1.95L123.94-1.95Q123.94-12.05 124.19-21.3L124.19-21.3Q124.39-28.45 124.99-37.1L124.99-37.1Q125.14-39.25 127.44-39.25L127.44-39.25Q128.54-39.25 129.17-38.78 129.79-38.3 129.74-37.4L129.74-37.4 129.24-27.8 128.94-22.3Q130.14-23.85 132.09-24.85 134.04-25.85 136.79-25.85L136.79-25.85Q140.09-25.85 141.99-24.18 143.89-22.5 144.79-19L144.79-19ZM176.24-5.1Q176.89-4.7 177.21-4.28 177.54-3.85 177.54-3.2L177.54-3.2Q177.54-2.15 176.89-1.38 176.24-0.6 175.14-0.6L175.14-0.6Q174.64-0.6 174.06-0.8 173.49-1 173.09-1.25L173.09-1.25 157.74-10.85 157.74-1.95Q157.74-0.9 157.09-0.3 156.44 0.3 155.34 0.3L155.34 0.3Q154.09 0.3 153.41-0.4 152.74-1.1 152.74-2.35L152.74-2.35Q152.74-10.4 152.69-18.25L152.69-18.25 152.54-26.8 152.34-26.7Q152.04-26.6 151.89-26.6L151.89-26.6Q150.24-26.6 150.24-29.2L150.24-29.2Q150.24-30.1 150.84-30.68 151.44-31.25 152.49-31.8L152.49-31.8 152.49-32.85Q152.49-33.95 153.16-34.55 153.84-35.15 155.19-35.15L155.19-35.15Q156.19-35.15 156.74-34.83 157.29-34.5 157.29-34L157.29-34 157.29-33.8Q160.99-35.05 163.99-35.05L163.99-35.05Q168.24-35.05 171.44-33.73 174.64-32.4 176.36-29.98 178.09-27.55 178.09-24.35L178.09-24.35Q178.09-21 176.16-18.63 174.24-16.25 170.99-15.08 167.74-13.9 163.79-13.9L163.79-13.9Q162.44-13.9 161.39-14.1L161.39-14.1 176.24-5.1ZM164.19-30.5Q162.54-30.5 161.01-30.13 159.49-29.75 157.49-29L157.49-29 157.54-27.1Q157.74-22 157.74-18.55L157.74-18.55Q160.09-18 163.39-18L163.39-18Q167.64-18 170.09-19.63 172.54-21.25 172.54-24.2L172.54-24.2Q172.54-27.05 170.26-28.78 167.99-30.5 164.19-30.5L164.19-30.5ZM207.64-4Q208.39-3.9 208.81-3.5 209.24-3.1 209.24-2.15L209.24-2.15Q209.24-1.25 208.79-0.65 208.34-0.05 207.54-0.05L207.54-0.05Q205.49-0.05 204.46-0.65 203.44-1.25 202.59-2.9L202.59-2.9Q200.49 0.5 194.79 0.5L194.79 0.5Q188.99 0.5 186.24-3.03 183.49-6.55 183.49-11.8L183.49-11.8Q183.49-15.3 184.89-18.25 186.29-21.2 188.99-22.95 191.69-24.7 195.29-24.7L195.29-24.7Q197.59-24.7 199.36-23.8 201.14-22.9 202.04-21.35L202.04-21.35 202.19-22.6Q202.39-24.4 204.34-24.4L204.34-24.4Q205.64-24.4 206.19-23.83 206.74-23.25 206.64-22.4L206.64-22.4Q206.14-18.65 206.04-16.75L206.04-16.75Q205.89-14.95 205.89-12.05L205.89-12.05 205.89-8.75Q205.89-6.15 206.16-5.15 206.44-4.15 207.64-4L207.64-4ZM200.99-8.75Q201.04-11 201.04-14.9L201.04-14.9Q201.04-16.95 200.16-18.25 199.29-19.55 198.01-20.15 196.74-20.75 195.44-20.75L195.44-20.75Q193.19-20.75 191.61-19.43 190.04-18.1 189.26-16.05 188.49-14 188.49-11.8L188.49-11.8Q188.49-8.45 190.06-5.98 191.64-3.5 194.99-3.5L194.99-3.5Q197.64-3.5 199.29-4.85 200.94-6.2 200.99-8.75L200.99-8.75ZM229.58-8.75Q230.73-8.75 231.23-8.25 231.73-7.75 231.73-6.55L231.73-6.55Q231.73-3.7 229.88-1.83 228.03 0.05 225.18 0.05L225.18 0.05Q221.23 0.05 219.48-3.33 217.73-6.7 217.73-13.9L217.73-13.9Q217.73-16.45 217.88-19L217.88-19 215.48-19.15Q213.53-19.25 213.53-21.2L213.53-21.2Q213.53-22.2 214.06-22.68 214.58-23.15 215.78-23.1L215.78-23.1 218.23-22.95Q218.53-26.1 219.38-31.7L219.38-31.7Q219.68-33.5 221.83-33.5L221.83-33.5Q223.08-33.5 223.76-32.85 224.43-32.2 224.33-31.3L224.33-31.3Q223.63-26.95 223.13-22.7L223.13-22.7Q225.83-22.6 226.68-22.6L226.68-22.6Q227.63-22.6 228.08-22.18 228.53-21.75 228.53-20.85L228.53-20.85Q228.53-19.75 228.06-19.33 227.58-18.9 226.33-18.85L226.33-18.85 222.78-18.85Q222.63-16.45 222.63-13.9L222.63-13.9Q222.63-8.85 223.28-6.43 223.93-4 225.58-4L225.58-4Q227.48-4 227.63-6.95L227.63-6.95Q227.63-7.85 228.06-8.3 228.48-8.75 229.58-8.75L229.58-8.75ZM249.88 0.3Q245.63 0.3 242.61-1.45 239.58-3.2 238.06-6.15 236.53-9.1 236.53-12.65L236.53-12.65Q236.53-16.3 238.18-19.28 239.83-22.25 242.83-23.98 245.83-25.7 249.68-25.7L249.68-25.7Q253.08-25.7 255.81-24.33 258.53-22.95 260.08-20.45 261.63-17.95 261.63-14.75L261.63-14.75Q261.63-13.05 261.13-12.33 260.63-11.6 259.08-11.55L259.08-11.55 241.03-11.3Q241.03-9.65 242.08-7.9 243.13-6.15 245.11-4.98 247.08-3.8 249.73-3.8L249.73-3.8Q251.63-3.8 252.96-4.33 254.28-4.85 255.08-5.58 255.88-6.3 256.98-7.5L256.98-7.5Q257.53-8.05 258.38-8.05L258.38-8.05Q259.18-8.05 259.91-7.43 260.63-6.8 260.63-6L260.63-6Q260.63-5.35 260.18-4.75L260.18-4.75Q258.78-2.75 256.43-1.23 254.08 0.3 249.88 0.3L249.88 0.3ZM241.03-14.8L256.93-15.1Q257.23-15.1 257.36-15.28 257.48-15.45 257.48-15.8L257.48-15.8Q257.48-18.45 255.26-20.13 253.03-21.8 249.68-21.8L249.68-21.8Q247.13-21.8 245.16-20.6 243.18-19.4 242.11-17.73 241.03-16.05 241.03-14.8L241.03-14.8ZM266.93-2.35Q266.93-3.35 267.4-4.03 267.88-4.7 268.83-4.65L268.83-4.65 269.48-4.65Q270.08-11.5 270.08-19.15L270.08-19.15Q270.08-25.55 269.98-29.1L269.98-29.1Q269.83-29.1 269.53-29L269.53-29Q268.88-28.9 268.4-29.35 267.93-29.8 267.93-30.65L267.93-30.65Q267.93-31.65 268.58-32.33 269.23-33 270.68-33.6L270.68-33.6Q272.83-34.45 275.25-34.9 277.68-35.35 279.98-35.35L279.98-35.35Q283.88-35.35 287-34.2 290.13-33.05 291.93-30.85 293.73-28.65 293.73-25.65L293.73-25.65Q293.73-22.7 291.45-20.43 289.18-18.15 285.28-17.55L285.28-17.55Q289.08-16.8 291.15-14.53 293.23-12.25 293.23-9.45L293.23-9.45Q293.23-6.3 291.4-4.1 289.58-1.9 286.55-0.83 283.53 0.25 279.88 0.15L279.88 0.15 273.93-0.1Q273.38 1.3 271.53 1.3L271.53 1.3Q269.68 1.3 269.18-0.25L269.18-0.25 268.68-0.25Q266.93-0.4 266.93-2.35L266.93-2.35ZM274.33-4.35Q277.63-4.25 279.43-4.25L279.43-4.25Q283.73-4.25 286-5.53 288.28-6.8 288.28-9.65L288.28-9.65Q288.28-12.8 285.8-14.13 283.33-15.45 279.08-15.6L279.08-15.6Q277.73-15.6 277.03-16 276.33-16.4 276.33-17.65L276.33-17.65Q276.33-18.9 277.05-19.35 277.78-19.8 278.98-19.85L278.98-19.85Q281.63-19.95 283.65-20.33 285.68-20.7 287.2-21.9 288.73-23.1 288.73-25.45L288.73-25.45Q288.73-28.25 286.4-29.7 284.08-31.15 279.93-31.15L279.93-31.15Q278.83-31.15 277.43-30.98 276.03-30.8 274.98-30.5L274.98-30.5Q275.08-26.1 275.08-19.15L275.08-19.15Q275.08-15.25 274.9-12.03 274.73-8.8 274.33-4.35L274.33-4.35ZM307.43-34.9Q317.53-34.1 323.13-29.95 328.73-25.8 328.73-18.05L328.73-18.05Q328.73-12.7 326.03-8.7 323.32-4.7 318.28-2.5 313.23-0.3 306.43-0.3L306.43-0.3 302.98-0.3Q301.53-0.3 300.88-0.83 300.23-1.35 300.23-2.6L300.23-2.6Q300.23-4.75 302.23-4.75L302.23-4.75 303.53-4.75 302.78-30.55 302.48-30.55Q300.18-30.55 300.18-32.7L300.18-32.7Q300.18-35.05 302.57-35.05L302.57-35.05 303.13-35.05Q303.63-35.95 305.23-35.95L305.23-35.95Q306.88-35.95 307.43-34.9L307.43-34.9ZM308.48-4.8Q312.93-5.1 316.38-6.73 319.82-8.35 321.8-11.25 323.78-14.15 323.78-18.05L323.78-18.05Q323.78-24.1 319.35-26.9 314.93-29.7 307.78-30.35L307.78-30.35 308.48-4.8Z" opacity="1" transform="matrix(1,0,0,1,0,0)" fill="#000000" class="wordmark-text-0" data-fill-palette-color="quaternary" id="text-0"></path></svg></g></svg></g></svg></g></svg></g><g></g></svg></g><defs></defs></svg><rect width="395.52" height="87.6716230382714" fill="none" stroke="none" visibility="hidden"></rect></g></svg></g></svg>