<svg width="24" height="24" viewBox="0 0 24 24" fill="none" xmlns="http://www.w3.org/2000/svg">
<path d="M19.8558 14.6217L21.1667 13.3108L19.8558 12L16.5833 15.2725L8.7275 7.41667L12 4.14417L10.6892 2.83333L9.37833 4.14417L8.0675 2.83333L6.10583 4.795L4.795 3.48417L3.48417 4.795L4.795 6.10583L2.83333 8.0675L4.14417 9.37833L2.83333 10.6892L4.14417 12L7.41667 8.7275L15.2725 16.5833L12 19.8558L13.3108 21.1667L14.6217 19.8558L15.9325 21.1667L17.8942 19.205L19.205 20.5158L20.5158 19.205L19.205 17.8942L21.1667 15.9325L19.8558 14.6217Z" fill="black"/>
</svg>