<svg width="22" height="22" viewBox="0 0 22 22" fill="none" xmlns="http://www.w3.org/2000/svg">
<path d="M10.99 1C5.47 1 1 5.48 1 11C1 16.52 5.47 21 10.99 21C16.52 21 21 16.52 21 11C21 5.48 16.52 1 10.99 1ZM11 19C6.58 19 3 15.42 3 11C3 6.58 6.58 3 11 3C15.42 3 19 6.58 19 11C19 15.42 15.42 19 11 19ZM14.5 10C15.33 10 16 9.33 16 8.5C16 7.67 15.33 7 14.5 7C13.67 7 13 7.67 13 8.5C13 9.33 13.67 10 14.5 10ZM7.5 10C8.33 10 9 9.33 9 8.5C9 7.67 8.33 7 7.5 7C6.67 7 6 7.67 6 8.5C6 9.33 6.67 10 7.5 10ZM11 16.5C13.33 16.5 15.31 15.04 16.11 13H5.89C6.69 15.04 8.67 16.5 11 16.5Z" fill="black"/>
</svg>