<svg width="34" height="34" viewBox="0 0 34 34" fill="none" xmlns="http://www.w3.org/2000/svg">
<path d="M7.01276 28.3776C6.71632 28.3776 6.42729 28.3453 6.14844 28.2852L6.5267 31.7694C6.57692 32.2328 6.96827 32.5839 7.43437 32.5839H10.7335C11.1996 32.5839 11.5909 32.2328 11.6412 31.7694L12.0195 28.2852C11.7405 28.3452 11.4515 28.3776 11.1551 28.3776H7.01276Z" fill="black"/>
<path d="M9.99688 19.871V21.444C9.99688 21.9483 9.58806 22.3571 9.08379 22.3571C8.57953 22.3571 8.17071 21.9483 8.17071 21.444V19.8709C7.00469 19.6423 5.9905 18.9851 5.29978 18.0703C4.93868 18.4796 4.71875 19.0183 4.71875 19.6082V24.2358C4.71875 25.5126 5.74774 26.5512 7.01261 26.5512H11.155C12.4198 26.5512 13.4489 25.5126 13.4489 24.2358V19.6082C13.4489 19.0183 13.2289 18.4796 12.8678 18.0703C12.177 18.9851 11.1628 19.6423 9.99688 19.871Z" fill="black"/>
<path d="M28.3678 1.41602C27.8635 1.41602 27.4547 1.82483 27.4547 2.3291V3.24219H19.541V2.3291C19.541 1.82483 19.1322 1.41602 18.6279 1.41602C18.1237 1.41602 17.7148 1.82483 17.7148 2.3291V31.6696C17.7148 32.1739 18.1237 32.5827 18.6279 32.5827C19.1322 32.5827 19.541 32.1739 19.541 31.6696V30.6348H27.4547V31.6696C27.4547 32.1739 27.8635 32.5827 28.3678 32.5827C28.872 32.5827 29.2808 32.1739 29.2808 31.6696V2.3291C29.2808 1.82483 28.872 1.41602 28.3678 1.41602ZM19.541 19.6778H27.4547V21.504H19.541V19.6778ZM19.541 17.8516V16.0255H27.4547V17.8516H19.541ZM19.541 14.1992V12.373H27.4547V14.1992H19.541ZM19.541 10.5469V8.72076H27.4547V10.5469H19.541ZM19.541 23.3301H27.4547V25.1562H19.541V23.3301ZM27.4547 5.06836V6.89453H19.541V5.06836H27.4547ZM19.541 28.8087V26.9825H27.4547V28.8087H19.541Z" fill="black"/>
<path d="M9.08413 18.1331C10.6931 18.1331 11.9974 16.8288 11.9974 15.2199C11.9974 13.6109 10.6931 12.3066 9.08413 12.3066C7.4752 12.3066 6.1709 13.6109 6.1709 15.2199C6.1709 16.8288 7.4752 18.1331 9.08413 18.1331Z" fill="black"/>
</svg>
