
<svg width="24" height="24" viewBox="0 0 24 24" fill="none" xmlns="http://www.w3.org/2000/svg">
<path d="M14.1364 15.1766C14.8357 14.5747 15.2793 13.6835 15.2793 12.6907V12.5178C15.2793 10.7096 13.8082 9.23845 12 9.23845C10.1918 9.23845 8.72064 10.7096 8.72064 12.5178V12.6907C8.72064 13.6835 9.16424 14.5747 9.86361 15.1766C7.60548 15.8701 5.95911 17.975 5.95911 20.4575C5.95911 20.7434 6.19093 20.9753 6.47689 20.9753H17.5231C17.809 20.9753 18.0409 20.7434 18.0409 20.4574C18.0409 17.975 16.3945 15.8701 14.1364 15.1766ZM9.75624 12.6907V12.5178C9.75624 11.2806 10.7628 10.2741 12 10.2741C13.2372 10.2741 14.2437 11.2806 14.2437 12.5178V12.6907C14.2437 13.9279 13.2372 14.9344 12 14.9344C10.7628 14.9344 9.75624 13.9279 9.75624 12.6907ZM7.02438 19.9397C7.28183 17.7081 9.18284 15.97 11.4822 15.97H12.5178C14.8171 15.97 16.7181 17.7082 16.9756 19.9397L7.02438 19.9397Z" fill="#151515" stroke="#151515" stroke-width="0.5"/>
<path d="M14.7612 5.03084C14.7095 4.87166 14.584 4.74727 14.4244 4.69696L13.1794 4.30466L12.4216 3.24191C12.3244 3.10568 12.1674 3.02475 12 3.02475C11.8326 3.02475 11.6756 3.10568 11.5784 3.24191L10.8206 4.30473L9.57564 4.69703C9.416 4.74738 9.29056 4.87173 9.23881 5.03091C9.18709 5.19003 9.2155 5.36444 9.31506 5.49895L10.0917 6.54809L10.0801 7.85337C10.0786 8.02071 10.1581 8.17846 10.2935 8.2769C10.3831 8.34201 10.4899 8.37576 10.5979 8.37576C10.6531 8.37576 10.7086 8.36693 10.7622 8.34897L12 7.93458L13.2378 8.34893C13.3965 8.4022 13.5711 8.37527 13.7065 8.27683C13.8419 8.17846 13.9215 8.02068 13.9199 7.8533L13.9083 6.54802L14.6849 5.49888C14.7845 5.36441 14.8129 5.19003 14.7612 5.03084ZM12.9728 6.0713C12.9059 6.16172 12.8702 6.27148 12.8712 6.38398L12.8779 7.13643L12.1643 6.89754C12.111 6.87964 12.0555 6.87075 11.9999 6.87075C11.9444 6.87075 11.8889 6.87968 11.8356 6.89754L11.122 7.13643L11.1287 6.38394C11.1297 6.27148 11.094 6.16172 11.0271 6.0713L10.5794 5.46647L11.2971 5.24031C11.4044 5.20652 11.4978 5.13867 11.5631 5.04705L12 4.43438L12.4369 5.04705C12.5022 5.13863 12.5956 5.20645 12.7028 5.24031L13.4205 5.46647L12.9728 6.0713Z" fill="#151515" stroke="#151515" stroke-width="0.3"/>
<path d="M20.9746 6.58447C20.9229 6.42532 20.7974 6.30094 20.6378 6.25063L19.3929 5.85835L18.6351 4.79554C18.5379 4.65931 18.3808 4.57838 18.2135 4.57838C18.0461 4.57838 17.889 4.65931 17.7919 4.79554L17.034 5.85835L15.7891 6.25063C15.6295 6.30094 15.504 6.42528 15.4523 6.58447C15.4005 6.74362 15.429 6.91803 15.5285 7.05254L16.3051 8.10171L16.2935 9.407C16.292 9.57438 16.3716 9.73212 16.5069 9.83052C16.6424 9.92896 16.817 9.95568 16.9757 9.90267L18.2135 9.48831L19.4512 9.90267C19.5049 9.92067 19.5604 9.92942 19.6156 9.92942C19.7236 9.92942 19.8304 9.89563 19.92 9.83052C20.0554 9.73216 20.1349 9.57438 20.1334 9.407L20.1218 8.10171L20.8984 7.05254C20.998 6.91803 21.0264 6.74362 20.9746 6.58447ZM19.1863 7.62489C19.1194 7.71534 19.0837 7.8251 19.0847 7.9376L19.0914 8.69009L18.3778 8.45117C18.3245 8.43331 18.269 8.42441 18.2134 8.42441C18.1579 8.42441 18.1024 8.43334 18.049 8.45117L17.3355 8.69009L17.3421 7.9376C17.3432 7.8251 17.3075 7.71538 17.2406 7.62489L16.7929 7.02009L17.5105 6.79393C17.6178 6.76015 17.7112 6.6923 17.7765 6.60068L18.2134 5.98801L18.6503 6.60068C18.7156 6.69226 18.809 6.76008 18.9162 6.79393L19.6339 7.02009L19.1863 7.62489Z" fill="#151515" stroke="#151515" stroke-width="0.3"/>
<path d="M8.54774 6.58444C8.49603 6.42528 8.37055 6.3009 8.21094 6.25059L6.96602 5.85832L6.20812 4.79554C6.11095 4.65931 5.95391 4.57838 5.78653 4.57838C5.61915 4.57838 5.46211 4.65931 5.36493 4.79554L4.60711 5.85835L3.36215 6.25063C3.20251 6.30094 3.07707 6.42528 3.02535 6.58447C2.9736 6.74362 3.00204 6.91803 3.10161 7.05254L3.87821 8.10171L3.86661 9.407C3.86513 9.57434 3.94462 9.73209 4.08004 9.83049C4.21546 9.92893 4.39009 9.95568 4.54878 9.90263L5.78656 9.48828L7.02435 9.90263C7.07796 9.92056 7.13344 9.92935 7.18863 9.92935C7.2966 9.92935 7.4034 9.89556 7.49302 9.83045C7.6284 9.73209 7.70793 9.57431 7.70645 9.40696L7.69485 8.10168L8.47145 7.05251C8.57105 6.91803 8.59949 6.74362 8.54774 6.58444ZM6.75938 7.62492C6.69247 7.71534 6.65679 7.8251 6.65777 7.93757L6.66445 8.69009L5.95089 8.45117C5.89755 8.43331 5.84204 8.42441 5.78649 8.42441C5.73095 8.42441 5.67547 8.43334 5.6221 8.45117L4.90854 8.69009L4.91522 7.93757C4.91624 7.8251 4.88055 7.71534 4.81361 7.62492L4.3659 7.02013L5.08361 6.79397C5.19091 6.76018 5.28429 6.69233 5.34957 6.60071L5.78646 5.98804L6.22335 6.60071C6.28867 6.6923 6.38204 6.76011 6.4893 6.79397L7.20702 7.02013L6.75938 7.62492Z" fill="#151515" stroke="#151515" stroke-width="0.3"/>
</svg>
