
<svg width="24" height="24" viewBox="0 0 24 24" fill="none" xmlns="http://www.w3.org/2000/svg">
<path d="M21.4141 11.1328H19.845C19.7975 11.1328 19.7505 11.1348 19.7039 11.1379C19.3514 10.8234 18.9615 10.5637 18.5445 10.3636C19.4956 9.68814 20.1172 8.57806 20.1172 7.32547C20.1172 5.27209 18.4467 3.60156 16.3933 3.60156C14.3398 3.60156 12.6693 5.27209 12.6693 7.32547C12.6693 8.31226 13.0553 9.21054 13.684 9.8775H10.9438C11.5724 9.21054 11.9583 8.31226 11.9583 7.32547C11.9583 5.27209 10.2878 3.60156 8.23444 3.60156C6.18106 3.60156 4.51038 5.27209 4.51038 7.32547C4.51038 8.47705 5.03589 9.50809 5.85956 10.1918C5.28918 10.405 4.76001 10.7238 4.29599 11.1379C4.2493 11.1348 4.20245 11.1328 4.155 11.1328H2.58594C2.2623 11.1328 2 11.3951 2 11.7188V14.8568C2 15.1804 2.2623 15.4427 2.58594 15.4427H2.62759V19.8777C2.62759 20.2011 2.88989 20.4636 3.21353 20.4636H20.7865C21.1101 20.4636 21.3724 20.2011 21.3724 19.8777V15.4427H21.4141C21.7377 15.4427 22 15.1804 22 14.8568V11.7188C22 11.3951 21.7377 11.1328 21.4141 11.1328ZM20.8281 14.2708H19.845C19.303 14.2708 18.8619 13.8298 18.8619 13.2877C18.8619 12.7457 19.303 12.3047 19.845 12.3047H20.8281V14.2708ZM13.8411 7.32547C13.8411 5.9183 14.986 4.77344 16.3932 4.77344C17.8003 4.77344 18.9453 5.9183 18.9453 7.32547C18.9453 8.73279 17.8005 9.8775 16.3933 9.8775C14.986 9.8775 13.8411 8.73279 13.8411 7.32547ZM8.23444 4.77344C9.6416 4.77344 10.7865 5.9183 10.7865 7.32547C10.7865 8.73264 9.6416 9.8775 8.23444 9.8775C6.82712 9.8775 5.68225 8.73279 5.68225 7.32547C5.68225 5.9183 6.82712 4.77344 8.23444 4.77344ZM3.17188 12.3047H4.155C4.69699 12.3047 5.13812 12.7457 5.13812 13.2878C5.13812 13.8298 4.69699 14.2708 4.155 14.2708H3.17188V12.3047ZM3.79947 15.4427H4.155C5.3432 15.4427 6.31 14.476 6.31 13.2877C6.31 12.6297 6.01306 12.04 5.54675 11.6445H5.56064C6.16626 11.257 6.87061 11.0495 7.60684 11.0495H13.1884C12.1041 11.9635 11.4141 13.331 11.4141 14.8568V19.2917H6.30984V16.7395C6.30984 16.416 6.04755 16.1536 5.72391 16.1536C5.40042 16.1536 5.13797 16.416 5.13797 16.7395V19.2916H3.79947V15.4427ZM20.2005 19.2916H18.8619V16.7395C18.8619 16.416 18.5996 16.1536 18.2759 16.1536C17.9525 16.1536 17.69 16.416 17.69 16.7395V19.2916H12.5859V14.8568C12.5859 12.7574 14.2939 11.0495 16.3933 11.0495C17.1329 11.0495 17.8401 11.2589 18.4473 11.6495C17.9843 12.0452 17.6902 12.6325 17.6902 13.2878C17.6902 14.476 18.6568 15.4427 19.8452 15.4427H20.2005V19.2916Z" fill="#151515" stroke="#151515" stroke-width="0.5"/>
</svg>
